<svg width="64" height="64" viewBox="0 0 64 64" fill="none" xmlns="http://www.w3.org/2000/svg">
<g clip-path="url(#clip0_152_10)">
<path d="M0 32C0 27.6907 0.853333 23.552 2.56 19.584C4.26667 15.616 6.528 12.2027 9.344 9.344C12.16 6.48533 15.5733 4.224 19.584 2.56C23.5947 0.896 27.7333 0.0426667 32 0C36.352 0 40.512 0.853333 44.48 2.56C48.448 4.26667 51.84 6.528 54.656 9.344C57.472 12.16 59.7333 15.5733 61.44 19.584C63.1467 23.5947 64 27.7333 64 32C64 36.352 63.1467 40.4907 61.44 44.416C59.7333 48.3413 57.472 51.7547 54.656 54.656C51.84 57.5573 48.4267 59.84 44.416 61.504C40.4053 63.168 36.2667 64 32 64C27.7333 64 23.5947 63.168 19.584 61.504C15.5733 59.84 12.16 57.5573 9.344 54.656C6.528 51.7547 4.26667 48.3413 2.56 44.416C0.853333 40.4907 0 36.352 0 32ZM8 32C8 36.352 9.06667 40.384 11.2 44.096C13.3333 47.808 16.256 50.7093 19.968 52.8C23.68 54.8907 27.6907 55.9573 32 56C36.3093 56.0427 40.32 54.976 44.032 52.8C47.744 50.624 50.6667 47.7227 52.8 44.096C54.9333 40.4693 56 36.4373 56 32C56 27.5627 54.9333 23.552 52.8 19.968C50.6667 16.384 47.744 13.4827 44.032 11.264C40.32 9.04533 36.3093 7.95733 32 8C27.6907 8.04267 23.68 9.13067 19.968 11.264C16.256 13.3973 13.3333 16.2987 11.2 19.968C9.06667 23.6373 8 27.648 8 32ZM20.096 36.8C19.9253 36.032 19.9893 35.264 20.288 34.496C20.5867 33.728 21.0773 33.1307 21.76 32.704C22.4427 32.2773 23.1893 32.0427 24 32H28.032V20.032C28.032 18.9227 28.416 17.984 29.184 17.216C29.952 16.448 30.8907 16.0427 32 16C33.1093 15.9573 34.048 16.3627 34.816 17.216C35.584 18.0693 35.9893 19.008 36.032 20.032V32H40C40.8107 32 41.5573 32.2347 42.24 32.704C42.9227 33.1733 43.4133 33.7707 43.712 34.496C44.0107 35.264 44.0747 36.032 43.904 36.8C43.7333 37.568 43.3707 38.2507 42.816 38.848L34.816 46.848C34.048 47.616 33.1093 48 32 48C30.8907 48 29.952 47.616 29.184 46.848L21.184 38.848C20.5867 38.2933 20.224 37.6107 20.096 36.8Z" fill="#E4E2D7"/>
</g>
<defs>
<clipPath id="clip0_152_10">
<rect width="64" height="64" fill="white"/>
</clipPath>
</defs>
</svg>
